<svg viewBox="0 0 211 200" xmlns="http://www.w3.org/2000/svg">
  <path d="M58.641 198.996c-.627-.002-3.448-1.465-6.267-3.25a489.376 489.376 0 01-9.042-5.877c-2.154-1.447-6.827-5.513-10.384-9.036-3.557-3.522-8.795-9.511-11.639-13.309-2.844-3.798-6.974-10.542-9.176-14.988-2.203-4.445-5.178-11.672-6.612-16.059C3.832 131.309 2.514 124.098 1.78 116c-.949-10.472-.871-14.58.481-25.323.888-7.052 2.023-13.352 2.522-14 .498-.647 1.506-3.427 2.238-6.177.732-2.75 1.615-5.225 1.962-5.5.347-.275 1.263-2.075 2.037-4 .773-1.925 2.326-5.075 3.45-7 1.124-1.925 3.263-5.38 4.753-7.677 1.49-2.297 4.148-5.814 5.905-7.816 3.195-3.638 3.195-3.638 5.433-1.323 1.231 1.274 4.196 3.891 6.589 5.816 2.392 1.925 8.648 7.809 13.901 13.076 5.252 5.267 13.44 14.492 18.196 20.5 4.754 6.008 9.457 11.99 10.449 13.293.992 1.303 2.557 3.181 3.478 4.174.921.993 2.193 2.775 2.828 3.961.634 1.185 1.905 3.069 2.825 4.187.92 1.118 2.164 2.554 2.765 3.191.601.638 1.594 2.097 2.207 3.243.928 1.733.457 3.394-2.795 9.866-2.15 4.281-4.583 9.634-5.406 11.896-.823 2.262-2.666 7.263-4.094 11.113-1.429 3.85-3.943 11.05-5.587 16-1.644 4.95-3.95 11.25-5.124 14a475.021 475.021 0 01-3.385 7.745c-.687 1.51-1.804 4.434-2.481 6.5-.677 2.065-1.807 4.655-2.511 5.755-.704 1.1-1.585 3.238-1.957 4.75-.372 1.513-1.19 2.748-1.818 2.746zM155.122 197c-.358 0-1.735-2.362-3.06-5.25-1.326-2.887-3.41-7.5-4.63-10.25a547.966 547.966 0 01-4.795-11.263 2287.39 2287.39 0 00-6.259-15 2314.636 2314.636 0 00-5.409-12.737c-.949-2.2-2.354-5.575-3.121-7.5-.768-1.925-3.593-7.901-6.278-13.28-4.881-9.78-4.881-9.78-1.737-16 1.729-3.421 4.122-7.795 5.317-9.72 1.196-1.925 3.392-5.75 4.88-8.5s4.778-8.6 7.31-13 5.179-8.839 5.882-9.866c.703-1.026 2-2.826 2.882-4 .882-1.173 2.232-3.221 3-4.549.768-1.329 1.983-3.129 2.701-4 .718-.872 3.317-4.285 5.775-7.585s5.696-7.357 7.195-9.016c1.499-1.66 3.944-4.578 5.434-6.486 2.71-3.469 2.71-3.469 6.466.017 2.066 1.917 4.292 4.16 4.947 4.985.656.825 2.633 3.075 4.394 5 1.761 1.925 4.314 5.236 5.673 7.357a318.774 318.774 0 014.346 7c1.031 1.729 2.841 5.168 4.022 7.643 1.18 2.475 2.811 6.525 3.624 9 .813 2.475 1.902 5.4 2.421 6.5.519 1.1 1.785 7.797 2.814 14.881 1.713 11.79 1.753 13.908.478 25-.767 6.666-2.52 15.638-3.896 19.939-1.377 4.301-3.623 10.268-4.992 13.261-1.369 2.993-4.338 8.369-6.598 11.947-2.26 3.579-5.526 8.149-7.259 10.157-1.732 2.008-4.761 5.263-6.731 7.233-1.97 1.97-5.151 4.932-7.068 6.582-1.917 1.65-5.48 4.341-7.918 5.98-2.438 1.638-5.496 3.551-6.797 4.25-1.3.699-2.656 1.27-3.013 1.27zM117.767 95.125c-1.785.955-1.982.853-1.474-.761.322-1.025 2.359-7.264 4.527-13.864 2.25-6.85 7.543-19.08 12.336-28.5 4.617-9.075 10.408-21.62 12.868-27.877 2.461-6.257 5.085-11.611 5.831-11.898.747-.286 3.39.468 5.875 1.675s5.834 3.511 7.442 5.118c2.638 2.639 2.797 3.153 1.625 5.286-.713 1.3-4.028 5.701-7.367 9.78-3.338 4.079-8.768 11.07-12.065 15.536-3.298 4.467-10.843 16.284-16.767 26.262-5.925 9.977-11.699 18.637-12.831 19.243zm-27.553-8.939c-.446.446-2.395-.876-4.332-2.937-1.936-2.062-5.506-6.224-7.933-9.249-2.427-3.025-5.846-7.075-7.598-9-1.752-1.925-4.841-5.507-6.865-7.961-2.025-2.453-8.7-9.54-14.833-15.747-6.134-6.207-11.296-11.948-11.471-12.758-.174-.81.501-2.282 1.5-3.272 1-.989 3.559-2.99 5.687-4.446 3.87-2.647 3.87-2.647 9.548 4.519A1797.496 1797.496 0 0164.634 39.01c2.771 3.58 6.261 8.447 7.755 10.815 1.495 2.368 3.531 5.739 4.525 7.491a650.3 650.3 0 004.963 8.507c1.737 2.928 3.91 6.978 4.831 9a155.698 155.698 0 012.996 7.115c.726 1.89.956 3.802.51 4.248zm12.633-4.764c-.319 4.53-.438 4.729-1.481 2.5-.624-1.332-1.805-7.822-2.625-14.422-.82-6.6-2.21-14.472-3.09-17.494-.879-3.021-2.27-6.846-3.089-8.5-.82-1.653-2.647-6.606-4.061-11.006-1.413-4.4-3.449-10.025-4.525-12.5a364.374 364.374 0 01-3.161-7.5c-.663-1.65-1.535-4.037-1.938-5.304-.575-1.808-.265-2.51 1.445-3.26C81.52 3.41 85.425 2.581 89 2.094c3.575-.487 6.866-.544 7.313-.127.447.418 1.245 7.009 1.773 14.646.528 7.638 1.618 19.962 2.422 27.387.804 7.425 1.737 17.775 2.074 23 .337 5.225.456 11.715.265 14.422zm17.656-18.35c-1.474 4.428-1.474 4.428-1.073.096.221-2.383.664-4.596.986-4.917.321-.321.803-.364 1.072-.096.269.269-.175 2.481-.985 4.917zm-29.694-.02c-.191 1.173-.759 1.615-1.489 1.157-.65-.408-2.498-3.208-4.108-6.225-1.611-3.016-5.017-8.859-7.57-12.984s-6.356-9.525-8.451-12c-2.095-2.475-6.186-7.617-9.09-11.427-5.282-6.928-5.282-6.928-2.941-8.753 1.287-1.004 3.465-2.103 4.84-2.442 1.375-.339 3.4-1.163 4.5-1.832s2.977-1.465 4.17-1.767c1.697-.43 2.305-.013 2.788 1.909.339 1.353 1.051 3.214 1.581 4.136.53.922 1.345 3.476 1.811 5.676.466 2.2 1.765 6.025 2.888 8.5 1.123 2.475 3.255 8.325 4.738 13 1.482 4.675 3.088 9.4 3.568 10.5.48 1.1 1.368 3.948 1.974 6.328.605 2.38.961 5.181.791 6.224zM110.013 57c-.381 0-1.195-2.362-1.809-5.25-.613-2.887-1.774-9.075-2.579-13.75-.805-4.675-1.728-12.1-2.05-16.5-.323-4.4-.862-10.812-1.198-14.25-.61-6.25-.61-6.25 3.987-6.25 3.966 0 4.66.309 5.054 2.25.251 1.238.699 8.775.994 16.75.296 7.975.033 19.563-.584 25.75-.617 6.188-1.433 11.25-1.815 11.25zm12.632-4c-.477 0-.588-1.462-.245-3.25.342-1.787 1.26-5.5 2.04-8.25s1.912-6.575 2.515-8.5c.603-1.925 1.788-6.65 2.634-10.5.846-3.85 2.01-9.398 2.588-12.33 1.002-5.092 1.167-5.3 3.684-4.668 1.449.363 2.844.87 3.099 1.125.255.255-.012 1.231-.593 2.169-.582.937-1.636 3.504-2.343 5.704-.707 2.2-1.632 4.45-2.057 5-.424.55-1.284 3.025-1.911 5.5s-1.554 5.4-2.061 6.5c-.507 1.1-1.558 4.475-2.336 7.5-.778 3.025-2.029 7.413-2.781 9.75-.751 2.338-1.756 4.25-2.233 4.25zm-3.301-13.185c-.485 1.273-1.21 1.986-1.613 1.583-.402-.402-.731-9.488-.731-20.192 0-19.46 0-19.46 5.022-18.978 2.762.266 5.311.772 5.664 1.124.352.353.167 3.906-.412 7.895-.579 3.989-1.792 9.953-2.696 13.253-.904 3.3-2.253 7.575-2.998 9.5-.745 1.925-1.751 4.542-2.236 5.815zm14.289.175c-.476.005-.622-1.002-.323-2.24.299-1.237 2.554-8.1 5.011-15.25 3.571-10.392 4.839-13 6.323-13 1.365 0 1.771.611 1.533 2.31-.178 1.27-.879 3.745-1.559 5.5-.68 1.755-2.042 4.99-3.026 7.19-.985 2.2-2.984 6.583-4.442 9.74-1.457 3.157-3.04 5.744-3.517 5.75z" fill="#000"/>
</svg>
